<svg id="Group_35749" data-name="Group 35749" xmlns="http://www.w3.org/2000/svg" width="36" height="36" viewBox="0 0 36 36">
  <path id="Path_54717" data-name="Path 54717" d="M28.127,19.3a3.587,3.587,0,0,0-2.835-1.121,3.513,3.513,0,0,0-2.264,2l-.1.085h0a13.268,13.268,0,0,1-1.767,2.4.8.8,0,0,1-.794.18h-.053a.561.561,0,0,1-.3-.106l-.169-.1a11.225,11.225,0,0,0-6.433-.963c-3.788.434-3.174,7.068-2.9,9.258v.138a2.751,2.751,0,0,0,.688,1.248.635.635,0,0,0,.7.116,3.354,3.354,0,0,0,1.365-2.317c.116-.529.18-1.153.254-1.82.159-1.524.339-3.259,1.27-3.978a2.116,2.116,0,0,1,1.672-.317,11.183,11.183,0,0,1,2.507.719c2.19,1.058,3.5-.275,4.37-1.153l.148-.148a19.045,19.045,0,0,0,1.82-2.37.4.4,0,0,1,.19-.19.529.529,0,0,1,.413.138c2.624,2.4,3.83,5.29,3.227,7.84-.55,2.306-2.582,4.042-5.7,4.9l.085.307c4.666-1.164,7.628-3.47,8.337-6.5C32.486,24.825,31.142,21.894,28.127,19.3Z" transform="translate(-0.5 0.447)" fill="#1dcdfe"/>
  <path id="Path_54718" data-name="Path 54718" d="M25.6,1.5l-.434-.212A14.865,14.865,0,0,0,21.423.233,23.192,23.192,0,0,0,17.593,0a19.15,19.15,0,0,0-2.571.212,19.848,19.848,0,0,0-5.29,1.809c-.434.222-.973.54-1.481.857A15.024,15.024,0,0,0,5.532,4.8,16.7,16.7,0,0,0,2.559,8.232c-.116.169-.233.349-.339.529L2.5,8.93c.106-.18.212-.36.328-.529C6.071,3.555,13.488,1.058,21.158,2.339c.91.18,2.01.466,3.248.836.963.381,1.608,0,1.809-.423A.963.963,0,0,0,25.6,1.5Z" transform="translate(0.129 0.005)" fill="#21d0b2"/>
  <path id="Path_54719" data-name="Path 54719" d="M30.662,15.454A21.5,21.5,0,0,0,19.195,9.592a20.166,20.166,0,0,0-5.039-.328c-.368,0-.378,0-.45-.265h0a8.175,8.175,0,0,1-.3-2.275A2.1,2.1,0,0,0,11.693,4.45h-.061a1.782,1.782,0,0,0-.756.106A15.147,15.147,0,0,0,2.8,9.264C.6,11.708.1,14.216,0,17.464H.307C.593,12.65,4.845,8.037,10.446,6.439a22.249,22.249,0,0,0,.388,2.476v.1c.2,1.058.593,3.1,3.209,2.888a19.543,19.543,0,0,1,4.967.317,21.915,21.915,0,0,1,5.11,1.566,20.435,20.435,0,0,1,5.11,3.364,1.843,1.843,0,0,0,1.186.561.783.783,0,0,0,.6-.243C31.317,17.136,31.357,16.342,30.662,15.454Z" transform="translate(0 0.264)" fill="#21d0b2"/>
  <path id="Path_54720" data-name="Path 54720" d="M3.022,16.225l.148-.116a1.64,1.64,0,0,0,.487-1.545.656.656,0,0,0-.5-.423c-.423-.063-.92.233-1.4.825-2.539,3.65-1.947,6.591-.116,10.125a1.841,1.841,0,0,0,.106.2l.275-.148-.1-.2a7.84,7.84,0,0,1,1.09-8.718Z" transform="translate(0.004 0.465)" fill="#21d0b2"/>
  <path id="Path_54721" data-name="Path 54721" d="M20.912,18.627l.529.1h.339a1.926,1.926,0,0,0,1.883-1.449,2.116,2.116,0,0,0-1.64-2.486,2.116,2.116,0,0,0-2.751,1.428,2.01,2.01,0,0,0,1.64,2.412Z" transform="translate(0.431 0.564)" fill="#21d0b2"/>
  <path id="Path_54722" data-name="Path 54722" d="M29.69,8.368l-.212-.212h-.063a1.651,1.651,0,0,0-1.883.487,1.323,1.323,0,0,0,.37,1.8h0l.3.148a1.344,1.344,0,0,0,.614.169,1.174,1.174,0,0,0,.942-.487A1.5,1.5,0,0,0,29.69,8.368Z" transform="translate(0.488 0.318)" fill="#21d0b2"/>
  <path id="Path_54723" data-name="Path 54723" d="M28.835,5.394a14.315,14.315,0,0,1,6.486,8.993h.317a11.257,11.257,0,0,0-1.587-4.56A16.124,16.124,0,0,0,32.1,7.1a9.616,9.616,0,0,1-1.058-1.27,21.8,21.8,0,0,0-1.915-1.8A1.9,1.9,0,0,0,27.8,3.49h0a1.947,1.947,0,0,0-1.354.54l-.169.138a5.872,5.872,0,0,0-1.058,1.174.677.677,0,0,1-.677.18,31.307,31.307,0,0,0-4.581-1.28,27.35,27.35,0,0,0-3.079-.317,1.957,1.957,0,0,0-1.873.709.741.741,0,0,0,0,.794,1.7,1.7,0,0,0,1.545.624,12.389,12.389,0,0,1,2.687.307,34.184,34.184,0,0,1,4.338,1.27l.328.106c1.534.466,2.465-.349,3.248-1.333a5.068,5.068,0,0,1,.709-.92.794.794,0,0,1,.973-.085Z" transform="translate(-0.234 0.208)" fill="#21d0b2"/>
  <path id="Path_54724" data-name="Path 54724" d="M6.227,14.432a1.672,1.672,0,0,0,.624-.138l.317-.106h0a2.116,2.116,0,0,0,1.058-2.645,1.375,1.375,0,0,0-1.957-.592,2.243,2.243,0,0,0-1.121,2.814A1.143,1.143,0,0,0,6.227,14.432Z" transform="translate(0.29 0.418)" fill="#21d0b2"/>
  <path id="Path_54725" data-name="Path 54725" d="M17.839,28.264a2.55,2.55,0,0,0-1.566.106,1.473,1.473,0,0,0-1.143,1.111c-.085.5.36,1.111,1.058,1.513a2.285,2.285,0,0,0,1.143.339h1.058A1.65,1.65,0,0,0,19.9,30.274a1.407,1.407,0,0,0-.688-1.439A2.359,2.359,0,0,0,17.839,28.264Z" transform="translate(0.334 1.028)" fill="#21d0b2"/>
  <path id="Path_54726" data-name="Path 54726" d="M25.876,28.54c-.518-1.058-1.185-.963-1.449-.868a2.254,2.254,0,0,0-.973,2.656v.116a3.29,3.29,0,0,1,.106,1.005,2.857,2.857,0,0,1-1.2,2.042,8.094,8.094,0,0,1-6.136,1.058c-2.116-.307-4.8-1.365-5.808-2.571-.18-.275-.307-.36-.381-.381-.709-.6-1.777-.719-2.116-.36a.487.487,0,0,0,0,.6c-2.37-1.513-3.566-3.6-3.364-5.914.265-3,2.8-5.861,6.475-7.258a16.082,16.082,0,0,1,4.5-.942h.222c1.428-.148,2.571-1.238,2.518-2.031,0-.265-.212-.878-1.576-.825h-.434c-7,.413-12.633,3.9-13.68,8.464-.762,3.333,1.238,6.6,5.47,8.961l.116-.212a12.9,12.9,0,0,0,7.015,3.407,12.919,12.919,0,0,0,2.539.254A12.7,12.7,0,0,0,22.9,34.623c2.835-1.418,3.872-3.587,2.931-6.126Z" transform="translate(0.14 0.255)" fill="#21d0b2"/>
  <path id="Path_54727" data-name="Path 54727" d="M34.4,14.517a15.394,15.394,0,0,0-2.116-3.544,1.238,1.238,0,0,0-.741-.4.762.762,0,0,0-.624.212,1.312,1.312,0,0,0,.106,1.788c2.962,3.174,4.116,6.824,3.238,10.22l.307.1A10.876,10.876,0,0,0,34.4,14.517Z" transform="translate(0.678 0.336)" fill="#21d0b2"/>
  <path id="Path_54728" data-name="Path 54728" d="M32.327,18.89a.857.857,0,0,0-.825.36,1.418,1.418,0,0,0-.1,1.471h0a7.522,7.522,0,0,1-.973,8.464l-.794.783.212.233a8.7,8.7,0,0,0,.836-.815c2.941-3.079,3.661-5.893,2.486-9.522C32.952,19.113,32.55,18.933,32.327,18.89Z" transform="translate(0.622 0.488)" fill="#21d0b2"/>
</svg>
